<?xml version="1.0" encoding="utf-8"?>
<!-- Generator: Adobe Illustrator 24.0.1, SVG Export Plug-In . SVG Version: 6.00 Build 0)  -->
<svg version="1.1" id="Слой_1" xmlns="http://www.w3.org/2000/svg" xmlns:xlink="http://www.w3.org/1999/xlink" x="0px" y="0px"
	 viewBox="0 0 512 512" style="enable-background:new 0 0 512 512;" xml:space="preserve">
<style type="text/css">
	.st0{fill:#7D539F;}
</style>
<path class="st0" d="M371.9,182.1c-4.7-18.8-29.3-42.4-48.7-46.7c-44.6-8.4-89.7-8.4-134.3,0c-19.5,4.3-44,27.9-48.9,46.7
	c-7.8,36.7-7.8,73.7,0,110.4c2.5,9.4,9.8,20.1,19,28.9c9.2,8.6,20.1,15.6,29.9,17.8c0.8,0.2,1.4,1,1.4,1.8v53.7c0,2.7,3.3,3.9,5.1,2
	l25.6-26.2c0,0,20.3-20.9,24-24.6c0.2-0.4,0.8-0.6,1.2-0.6c25.8,0.8,51.4-1.2,77-6.1c19.5-4.3,44-27.9,48.7-46.7
	C379.9,255.8,379.9,218.7,371.9,182.1z M323.8,295.1c-3.9,8.2-9.4,15.2-17.6,19.7c-2.3,1.2-4.7,1.6-7.2,2.3c0.8-0.6-2.3-0.6-1.2,0
	c-2.7-0.8-5.3-1.4-7.8-2.5c-27.6-11.5-52.8-26.2-72.9-48.7c-11.5-12.9-20.3-27.2-27.9-42.6c-3.7-7.4-6.6-15-9.6-22.3
	c-2.9-7,1.2-13.9,5.5-19c4.1-4.9,9.4-8.6,15.2-11.3c4.3-2.3,8.8-1,11.9,2.9c7.2,8,13.5,16.6,18.6,26c3.3,5.7,2.5,12.9-3.5,16.8
	c-1.2,1-2.7,2-3.9,3.3c-1.2,0.8-2.3,1.8-3.1,3.1c-1.4,2.5-1.4,5.1-0.6,7.8c7.2,19.7,19.3,34.8,39.1,43.2c3.1,1.2,6.3,2.7,10,2.3
	c5.9-0.6,8-7.4,12.3-10.9c4.1-3.5,9.6-3.5,14.1-0.6c4.5,2.9,8.8,5.9,13.1,9c4.3,3.1,8.6,5.9,12.5,9.4
	C324.6,286.3,326,290.6,323.8,295.1z M279.8,193.5c-4.3-2-9-3.5-13.7-4.3c-2-0.2-4.1-0.4-6.1-0.8c-2.5-0.2-3.9-1.8-3.7-4.3
	c0.2-2.3,1.8-3.9,4.3-3.9c8.2,0.6,16.2,2.3,23.6,6.1c15,8,23.6,20.5,26,37.1c0,0.8,0.2,1.4,0.2,2.3c0.2,1.6,0.4,3.1,0.4,5.1v1
	c0,0.6,0,1.6-0.2,2.7c-1,3.5-6.6,3.9-7.8,0.4c-0.4-1.2-0.4-2.5-0.4-3.5c0-7.8-1.6-15.4-5.5-21.9C292.9,202.8,286.7,197,279.8,193.5z
	 M291.6,224.7c0,1,0.2,2.3,0,3.5c-0.4,1.8-1.6,2.7-3.1,2.9h-1.2c-2.5-0.4-3.7-2-3.9-4.3c-0.2-2-0.4-3.9-0.8-5.7
	c-1-3.7-2.9-7.2-5.9-9.4c-1.4-1-3.3-1.8-4.9-2.3c-2.3-0.8-4.5-0.6-6.8-1c-2.3-0.6-3.7-2.7-3.3-4.9c0.4-2,2.3-3.5,4.5-3.5
	C280.2,200.9,290.2,208.3,291.6,224.7z M325.8,244.9c-2.9,0-4.3-2.3-4.5-4.9c-0.2-5.1-0.6-10.2-1.2-15.4
	c-3.7-26.8-25.2-48.9-51.8-53.7c-3.9-0.8-8-1-12.1-1.4c-2.7-0.2-5.9-0.4-6.6-3.5c-0.4-2.7,1.8-4.9,4.3-5.1h2c36,1,65.5,25,71.9,60.4
	c1,6.1,1.4,12.3,2,18.4C330.1,242.5,328.5,244.9,325.8,244.9z M371.9,182.1c-4.7-18.8-29.3-42.4-48.7-46.7
	c-44.6-8.4-89.7-8.4-134.3,0c-19.5,4.3-44,27.9-48.9,46.7c-7.8,36.7-7.8,73.7,0,110.4c2.5,9.4,9.8,20.1,19,28.9
	c9.2,8.6,20.1,15.6,29.9,17.8c0.8,0.2,1.4,1,1.4,1.8v53.7c0,2.7,3.3,3.9,5.1,2l25.6-26.2c0,0,20.3-20.9,24-24.6
	c0.2-0.4,0.8-0.6,1.2-0.6c25.8,0.8,51.4-1.2,77-6.1c19.5-4.3,44-27.9,48.7-46.7C379.9,255.8,379.9,218.7,371.9,182.1z M323.8,295.1
	c-3.9,8.2-9.4,15.2-17.6,19.7c-2.3,1.2-4.7,1.6-7.2,2.3c0.8-0.6-2.3-0.6-1.2,0c-2.7-0.8-5.3-1.4-7.8-2.5
	c-27.6-11.5-52.8-26.2-72.9-48.7c-11.5-12.9-20.3-27.2-27.9-42.6c-3.7-7.4-6.6-15-9.6-22.3c-2.9-7,1.2-13.9,5.5-19
	c4.1-4.9,9.4-8.6,15.2-11.3c4.3-2.3,8.8-1,11.9,2.9c7.2,8,13.5,16.6,18.6,26c3.3,5.7,2.5,12.9-3.5,16.8c-1.2,1-2.7,2-3.9,3.3
	c-1.2,0.8-2.3,1.8-3.1,3.1c-1.4,2.5-1.4,5.1-0.6,7.8c7.2,19.7,19.3,34.8,39.1,43.2c3.1,1.2,6.3,2.7,10,2.3c5.9-0.6,8-7.4,12.3-10.9
	c4.1-3.5,9.6-3.5,14.1-0.6c4.5,2.9,8.8,5.9,13.1,9c4.3,3.1,8.6,5.9,12.5,9.4C324.6,286.3,326,290.6,323.8,295.1z M279.8,193.5
	c-4.3-2-9-3.5-13.7-4.3c-2-0.2-4.1-0.4-6.1-0.8c-2.5-0.2-3.9-1.8-3.7-4.3c0.2-2.3,1.8-3.9,4.3-3.9c8.2,0.6,16.2,2.3,23.6,6.1
	c15,8,23.6,20.5,26,37.1c0,0.8,0.2,1.4,0.2,2.3c0.2,1.6,0.4,3.1,0.4,5.1v1c0,0.6,0,1.6-0.2,2.7c-1,3.5-6.6,3.9-7.8,0.4
	c-0.4-1.2-0.4-2.5-0.4-3.5c0-7.8-1.6-15.4-5.5-21.9C292.9,202.8,286.7,197,279.8,193.5z M291.6,224.7c0,1,0.2,2.3,0,3.5
	c-0.4,1.8-1.6,2.7-3.1,2.9h-1.2c-2.5-0.4-3.7-2-3.9-4.3c-0.2-2-0.4-3.9-0.8-5.7c-1-3.7-2.9-7.2-5.9-9.4c-1.4-1-3.3-1.8-4.9-2.3
	c-2.3-0.8-4.5-0.6-6.8-1c-2.3-0.6-3.7-2.7-3.3-4.9c0.4-2,2.3-3.5,4.5-3.5C280.2,200.9,290.2,208.3,291.6,224.7z M325.8,244.9
	c-2.9,0-4.3-2.3-4.5-4.9c-0.2-5.1-0.6-10.2-1.2-15.4c-3.7-26.8-25.2-48.9-51.8-53.7c-3.9-0.8-8-1-12.1-1.4c-2.7-0.2-5.9-0.4-6.6-3.5
	c-0.4-2.7,1.8-4.9,4.3-5.1h2c36,1,65.5,25,71.9,60.4c1,6.1,1.4,12.3,2,18.4C330.1,242.5,328.5,244.9,325.8,244.9z M371.9,182.1
	c-4.7-18.8-29.3-42.4-48.7-46.7c-44.6-8.4-89.7-8.4-134.3,0c-19.5,4.3-44,27.9-48.9,46.7c-7.8,36.7-7.8,73.7,0,110.4
	c2.5,9.4,9.8,20.1,19,28.9c9.2,8.6,20.1,15.6,29.9,17.8c0.8,0.2,1.4,1,1.4,1.8v53.7c0,2.7,3.3,3.9,5.1,2l25.6-26.2
	c0,0,20.3-20.9,24-24.6c0.2-0.4,0.8-0.6,1.2-0.6c25.8,0.8,51.4-1.2,77-6.1c19.5-4.3,44-27.9,48.7-46.7
	C379.9,255.8,379.9,218.7,371.9,182.1z M323.8,295.1c-3.9,8.2-9.4,15.2-17.6,19.7c-2.3,1.2-4.7,1.6-7.2,2.3c0.8-0.6-2.3-0.6-1.2,0
	c-2.7-0.8-5.3-1.4-7.8-2.5c-27.6-11.5-52.8-26.2-72.9-48.7c-11.5-12.9-20.3-27.2-27.9-42.6c-3.7-7.4-6.6-15-9.6-22.3
	c-2.9-7,1.2-13.9,5.5-19c4.1-4.9,9.4-8.6,15.2-11.3c4.3-2.3,8.8-1,11.9,2.9c7.2,8,13.5,16.6,18.6,26c3.3,5.7,2.5,12.9-3.5,16.8
	c-1.2,1-2.7,2-3.9,3.3c-1.2,0.8-2.3,1.8-3.1,3.1c-1.4,2.5-1.4,5.1-0.6,7.8c7.2,19.7,19.3,34.8,39.1,43.2c3.1,1.2,6.3,2.7,10,2.3
	c5.9-0.6,8-7.4,12.3-10.9c4.1-3.5,9.6-3.5,14.1-0.6c4.5,2.9,8.8,5.9,13.1,9c4.3,3.1,8.6,5.9,12.5,9.4
	C324.6,286.3,326,290.6,323.8,295.1z M279.8,193.5c-4.3-2-9-3.5-13.7-4.3c-2-0.2-4.1-0.4-6.1-0.8c-2.5-0.2-3.9-1.8-3.7-4.3
	c0.2-2.3,1.8-3.9,4.3-3.9c8.2,0.6,16.2,2.3,23.6,6.1c15,8,23.6,20.5,26,37.1c0,0.8,0.2,1.4,0.2,2.3c0.2,1.6,0.4,3.1,0.4,5.1v1
	c0,0.6,0,1.6-0.2,2.7c-1,3.5-6.6,3.9-7.8,0.4c-0.4-1.2-0.4-2.5-0.4-3.5c0-7.8-1.6-15.4-5.5-21.9C292.9,202.8,286.7,197,279.8,193.5z
	 M291.6,224.7c0,1,0.2,2.3,0,3.5c-0.4,1.8-1.6,2.7-3.1,2.9h-1.2c-2.5-0.4-3.7-2-3.9-4.3c-0.2-2-0.4-3.9-0.8-5.7
	c-1-3.7-2.9-7.2-5.9-9.4c-1.4-1-3.3-1.8-4.9-2.3c-2.3-0.8-4.5-0.6-6.8-1c-2.3-0.6-3.7-2.7-3.3-4.9c0.4-2,2.3-3.5,4.5-3.5
	C280.2,200.9,290.2,208.3,291.6,224.7z M325.8,244.9c-2.9,0-4.3-2.3-4.5-4.9c-0.2-5.1-0.6-10.2-1.2-15.4
	c-3.7-26.8-25.2-48.9-51.8-53.7c-3.9-0.8-8-1-12.1-1.4c-2.7-0.2-5.9-0.4-6.6-3.5c-0.4-2.7,1.8-4.9,4.3-5.1h2c36,1,65.5,25,71.9,60.4
	c1,6.1,1.4,12.3,2,18.4C330.1,242.5,328.5,244.9,325.8,244.9z M371.9,182.1c-4.7-18.8-29.3-42.4-48.7-46.7
	c-44.6-8.4-89.7-8.4-134.3,0c-19.5,4.3-44,27.9-48.9,46.7c-7.8,36.7-7.8,73.7,0,110.4c2.5,9.4,9.8,20.1,19,28.9
	c9.2,8.6,20.1,15.6,29.9,17.8c0.8,0.2,1.4,1,1.4,1.8v53.7c0,2.7,3.3,3.9,5.1,2l25.6-26.2c0,0,20.3-20.9,24-24.6
	c0.2-0.4,0.8-0.6,1.2-0.6c25.8,0.8,51.4-1.2,77-6.1c19.5-4.3,44-27.9,48.7-46.7C379.9,255.8,379.9,218.7,371.9,182.1z M323.8,295.1
	c-3.9,8.2-9.4,15.2-17.6,19.7c-2.3,1.2-4.7,1.6-7.2,2.3c0.8-0.6-2.3-0.6-1.2,0c-2.7-0.8-5.3-1.4-7.8-2.5
	c-27.6-11.5-52.8-26.2-72.9-48.7c-11.5-12.9-20.3-27.2-27.9-42.6c-3.7-7.4-6.6-15-9.6-22.3c-2.9-7,1.2-13.9,5.5-19
	c4.1-4.9,9.4-8.6,15.2-11.3c4.3-2.3,8.8-1,11.9,2.9c7.2,8,13.5,16.6,18.6,26c3.3,5.7,2.5,12.9-3.5,16.8c-1.2,1-2.7,2-3.9,3.3
	c-1.2,0.8-2.3,1.8-3.1,3.1c-1.4,2.5-1.4,5.1-0.6,7.8c7.2,19.7,19.3,34.8,39.1,43.2c3.1,1.2,6.3,2.7,10,2.3c5.9-0.6,8-7.4,12.3-10.9
	c4.1-3.5,9.6-3.5,14.1-0.6c4.5,2.9,8.8,5.9,13.1,9c4.3,3.1,8.6,5.9,12.5,9.4C324.6,286.3,326,290.6,323.8,295.1z M279.8,193.5
	c-4.3-2-9-3.5-13.7-4.3c-2-0.2-4.1-0.4-6.1-0.8c-2.5-0.2-3.9-1.8-3.7-4.3c0.2-2.3,1.8-3.9,4.3-3.9c8.2,0.6,16.2,2.3,23.6,6.1
	c15,8,23.6,20.5,26,37.1c0,0.8,0.2,1.4,0.2,2.3c0.2,1.6,0.4,3.1,0.4,5.1v1c0,0.6,0,1.6-0.2,2.7c-1,3.5-6.6,3.9-7.8,0.4
	c-0.4-1.2-0.4-2.5-0.4-3.5c0-7.8-1.6-15.4-5.5-21.9C292.9,202.8,286.7,197,279.8,193.5z M291.6,224.7c0,1,0.2,2.3,0,3.5
	c-0.4,1.8-1.6,2.7-3.1,2.9h-1.2c-2.5-0.4-3.7-2-3.9-4.3c-0.2-2-0.4-3.9-0.8-5.7c-1-3.7-2.9-7.2-5.9-9.4c-1.4-1-3.3-1.8-4.9-2.3
	c-2.3-0.8-4.5-0.6-6.8-1c-2.3-0.6-3.7-2.7-3.3-4.9c0.4-2,2.3-3.5,4.5-3.5C280.2,200.9,290.2,208.3,291.6,224.7z M325.8,244.9
	c-2.9,0-4.3-2.3-4.5-4.9c-0.2-5.1-0.6-10.2-1.2-15.4c-3.7-26.8-25.2-48.9-51.8-53.7c-3.9-0.8-8-1-12.1-1.4c-2.7-0.2-5.9-0.4-6.6-3.5
	c-0.4-2.7,1.8-4.9,4.3-5.1h2c36,1,65.5,25,71.9,60.4c1,6.1,1.4,12.3,2,18.4C330.1,242.5,328.5,244.9,325.8,244.9z M256,0
	C114.7,0,0,114.7,0,256c0,141.3,114.7,256,256,256s256-114.7,256-256C512,114.7,397.3,0,256,0z M397.9,298.2v0.4
	c-7.2,29.1-39.5,60.2-69.2,66.6h-0.4c-24,4.7-48.1,7-72.3,7c-7.2,0-14.1-0.2-21.3-0.6l-32.8,34c-8.2,8.6-22.5,2.9-22.5-9v-32.4
	c-28.5-8-58.4-37.7-65.3-65.5v-0.4c-8.8-40.3-8.8-81.5,0-121.9v-0.4c7.2-29.1,39.5-60.2,69.2-66.6h0.4c47.9-9.2,96.7-9.2,144.6,0
	h0.4c29.7,6.3,62.1,37.5,69.2,66.6v0.4C406.7,216.7,406.7,257.8,397.9,298.2z M323.2,135.4c-44.6-8.4-89.7-8.4-134.3,0
	c-19.5,4.3-44,27.9-48.9,46.7c-7.8,36.7-7.8,73.7,0,110.4c2.5,9.4,9.8,20.1,19,28.9c9.2,8.6,20.1,15.6,29.9,17.8
	c0.8,0.2,1.4,1,1.4,1.8v53.7c0,2.7,3.3,3.9,5.1,2l25.6-26.2c0,0,20.3-20.9,24-24.6c0.2-0.4,0.8-0.6,1.2-0.6
	c25.8,0.8,51.4-1.2,77-6.1c19.5-4.3,44-27.9,48.7-46.7c8-36.7,8-73.7,0-110.4C367.2,163.2,342.6,139.7,323.2,135.4z M323.8,295.1
	c-3.9,8.2-9.4,15.2-17.6,19.7c-2.3,1.2-4.7,1.6-7.2,2.3c0.8-0.6-2.3-0.6-1.2,0c-2.7-0.8-5.3-1.4-7.8-2.5
	c-27.6-11.5-52.8-26.2-72.9-48.7c-11.5-12.9-20.3-27.2-27.9-42.6c-3.7-7.4-6.6-15-9.6-22.3c-2.9-7,1.2-13.9,5.5-19
	c4.1-4.9,9.4-8.6,15.2-11.3c4.3-2.3,8.8-1,11.9,2.9c7.2,8,13.5,16.6,18.6,26c3.3,5.7,2.5,12.9-3.5,16.8c-1.2,1-2.7,2-3.9,3.3
	c-1.2,0.8-2.3,1.8-3.1,3.1c-1.4,2.5-1.4,5.1-0.6,7.8c7.2,19.7,19.3,34.8,39.1,43.2c3.1,1.2,6.3,2.7,10,2.3c5.9-0.6,8-7.4,12.3-10.9
	c4.1-3.5,9.6-3.5,14.1-0.6c4.5,2.9,8.8,5.9,13.1,9c4.3,3.1,8.6,5.9,12.5,9.4C324.6,286.3,326,290.6,323.8,295.1z M279.8,193.5
	c-4.3-2-9-3.5-13.7-4.3c-2-0.2-4.1-0.4-6.1-0.8c-2.5-0.2-3.9-1.8-3.7-4.3c0.2-2.3,1.8-3.9,4.3-3.9c8.2,0.6,16.2,2.3,23.6,6.1
	c15,8,23.6,20.5,26,37.1c0,0.8,0.2,1.4,0.2,2.3c0.2,1.6,0.4,3.1,0.4,5.1v1c0,0.6,0,1.6-0.2,2.7c-1,3.5-6.6,3.9-7.8,0.4
	c-0.4-1.2-0.4-2.5-0.4-3.5c0-7.8-1.6-15.4-5.5-21.9C292.9,202.8,286.7,197,279.8,193.5z M291.6,224.7c0,1,0.2,2.3,0,3.5
	c-0.4,1.8-1.6,2.7-3.1,2.9h-1.2c-2.5-0.4-3.7-2-3.9-4.3c-0.2-2-0.4-3.9-0.8-5.7c-1-3.7-2.9-7.2-5.9-9.4c-1.4-1-3.3-1.8-4.9-2.3
	c-2.3-0.8-4.5-0.6-6.8-1c-2.3-0.6-3.7-2.7-3.3-4.9c0.4-2,2.3-3.5,4.5-3.5C280.2,200.9,290.2,208.3,291.6,224.7z M325.8,244.9
	c-2.9,0-4.3-2.3-4.5-4.9c-0.2-5.1-0.6-10.2-1.2-15.4c-3.7-26.8-25.2-48.9-51.8-53.7c-3.9-0.8-8-1-12.1-1.4c-2.7-0.2-5.9-0.4-6.6-3.5
	c-0.4-2.7,1.8-4.9,4.3-5.1h2c36,1,65.5,25,71.9,60.4c1,6.1,1.4,12.3,2,18.4C330.1,242.5,328.5,244.9,325.8,244.9z M371.9,182.1
	c-4.7-18.8-29.3-42.4-48.7-46.7c-44.6-8.4-89.7-8.4-134.3,0c-19.5,4.3-44,27.9-48.9,46.7c-7.8,36.7-7.8,73.7,0,110.4
	c2.5,9.4,9.8,20.1,19,28.9c9.2,8.6,20.1,15.6,29.9,17.8c0.8,0.2,1.4,1,1.4,1.8v53.7c0,2.7,3.3,3.9,5.1,2l25.6-26.2
	c0,0,20.3-20.9,24-24.6c0.2-0.4,0.8-0.6,1.2-0.6c25.8,0.8,51.4-1.2,77-6.1c19.5-4.3,44-27.9,48.7-46.7
	C379.9,255.8,379.9,218.7,371.9,182.1z M323.8,295.1c-3.9,8.2-9.4,15.2-17.6,19.7c-2.3,1.2-4.7,1.6-7.2,2.3c0.8-0.6-2.3-0.6-1.2,0
	c-2.7-0.8-5.3-1.4-7.8-2.5c-27.6-11.5-52.8-26.2-72.9-48.7c-11.5-12.9-20.3-27.2-27.9-42.6c-3.7-7.4-6.6-15-9.6-22.3
	c-2.9-7,1.2-13.9,5.5-19c4.1-4.9,9.4-8.6,15.2-11.3c4.3-2.3,8.8-1,11.9,2.9c7.2,8,13.5,16.6,18.6,26c3.3,5.7,2.5,12.9-3.5,16.8
	c-1.2,1-2.7,2-3.9,3.3c-1.2,0.8-2.3,1.8-3.1,3.1c-1.4,2.5-1.4,5.1-0.6,7.8c7.2,19.7,19.3,34.8,39.1,43.2c3.1,1.2,6.3,2.7,10,2.3
	c5.9-0.6,8-7.4,12.3-10.9c4.1-3.5,9.6-3.5,14.1-0.6c4.5,2.9,8.8,5.9,13.1,9c4.3,3.1,8.6,5.9,12.5,9.4
	C324.6,286.3,326,290.6,323.8,295.1z M279.8,193.5c-4.3-2-9-3.5-13.7-4.3c-2-0.2-4.1-0.4-6.1-0.8c-2.5-0.2-3.9-1.8-3.7-4.3
	c0.2-2.3,1.8-3.9,4.3-3.9c8.2,0.6,16.2,2.3,23.6,6.1c15,8,23.6,20.5,26,37.1c0,0.8,0.2,1.4,0.2,2.3c0.2,1.6,0.4,3.1,0.4,5.1v1
	c0,0.6,0,1.6-0.2,2.7c-1,3.5-6.6,3.9-7.8,0.4c-0.4-1.2-0.4-2.5-0.4-3.5c0-7.8-1.6-15.4-5.5-21.9C292.9,202.8,286.7,197,279.8,193.5z
	 M291.6,224.7c0,1,0.2,2.3,0,3.5c-0.4,1.8-1.6,2.7-3.1,2.9h-1.2c-2.5-0.4-3.7-2-3.9-4.3c-0.2-2-0.4-3.9-0.8-5.7
	c-1-3.7-2.9-7.2-5.9-9.4c-1.4-1-3.3-1.8-4.9-2.3c-2.3-0.8-4.5-0.6-6.8-1c-2.3-0.6-3.7-2.7-3.3-4.9c0.4-2,2.3-3.5,4.5-3.5
	C280.2,200.9,290.2,208.3,291.6,224.7z M325.8,244.9c-2.9,0-4.3-2.3-4.5-4.9c-0.2-5.1-0.6-10.2-1.2-15.4
	c-3.7-26.8-25.2-48.9-51.8-53.7c-3.9-0.8-8-1-12.1-1.4c-2.7-0.2-5.9-0.4-6.6-3.5c-0.4-2.7,1.8-4.9,4.3-5.1h2c36,1,65.5,25,71.9,60.4
	c1,6.1,1.4,12.3,2,18.4C330.1,242.5,328.5,244.9,325.8,244.9z M371.9,182.1c-4.7-18.8-29.3-42.4-48.7-46.7
	c-44.6-8.4-89.7-8.4-134.3,0c-19.5,4.3-44,27.9-48.9,46.7c-7.8,36.7-7.8,73.7,0,110.4c2.5,9.4,9.8,20.1,19,28.9
	c9.2,8.6,20.1,15.6,29.9,17.8c0.8,0.2,1.4,1,1.4,1.8v53.7c0,2.7,3.3,3.9,5.1,2l25.6-26.2c0,0,20.3-20.9,24-24.6
	c0.2-0.4,0.8-0.6,1.2-0.6c25.8,0.8,51.4-1.2,77-6.1c19.5-4.3,44-27.9,48.7-46.7C379.9,255.8,379.9,218.7,371.9,182.1z M323.8,295.1
	c-3.9,8.2-9.4,15.2-17.6,19.7c-2.3,1.2-4.7,1.6-7.2,2.3c0.8-0.6-2.3-0.6-1.2,0c-2.7-0.8-5.3-1.4-7.8-2.5
	c-27.6-11.5-52.8-26.2-72.9-48.7c-11.5-12.9-20.3-27.2-27.9-42.6c-3.7-7.4-6.6-15-9.6-22.3c-2.9-7,1.2-13.9,5.5-19
	c4.1-4.9,9.4-8.6,15.2-11.3c4.3-2.3,8.8-1,11.9,2.9c7.2,8,13.5,16.6,18.6,26c3.3,5.7,2.5,12.9-3.5,16.8c-1.2,1-2.7,2-3.9,3.3
	c-1.2,0.8-2.3,1.8-3.1,3.1c-1.4,2.5-1.4,5.1-0.6,7.8c7.2,19.7,19.3,34.8,39.1,43.2c3.1,1.2,6.3,2.7,10,2.3c5.9-0.6,8-7.4,12.3-10.9
	c4.1-3.5,9.6-3.5,14.1-0.6c4.5,2.9,8.8,5.9,13.1,9c4.3,3.1,8.6,5.9,12.5,9.4C324.6,286.3,326,290.6,323.8,295.1z M279.8,193.5
	c-4.3-2-9-3.5-13.7-4.3c-2-0.2-4.1-0.4-6.1-0.8c-2.5-0.2-3.9-1.8-3.7-4.3c0.2-2.3,1.8-3.9,4.3-3.9c8.2,0.6,16.2,2.3,23.6,6.1
	c15,8,23.6,20.5,26,37.1c0,0.8,0.2,1.4,0.2,2.3c0.2,1.6,0.4,3.1,0.4,5.1v1c0,0.6,0,1.6-0.2,2.7c-1,3.5-6.6,3.9-7.8,0.4
	c-0.4-1.2-0.4-2.5-0.4-3.5c0-7.8-1.6-15.4-5.5-21.9C292.9,202.8,286.7,197,279.8,193.5z M291.6,224.7c0,1,0.2,2.3,0,3.5
	c-0.4,1.8-1.6,2.7-3.1,2.9h-1.2c-2.5-0.4-3.7-2-3.9-4.3c-0.2-2-0.4-3.9-0.8-5.7c-1-3.7-2.9-7.2-5.9-9.4c-1.4-1-3.3-1.8-4.9-2.3
	c-2.3-0.8-4.5-0.6-6.8-1c-2.3-0.6-3.7-2.7-3.3-4.9c0.4-2,2.3-3.5,4.5-3.5C280.2,200.9,290.2,208.3,291.6,224.7z M325.8,244.9
	c-2.9,0-4.3-2.3-4.5-4.9c-0.2-5.1-0.6-10.2-1.2-15.4c-3.7-26.8-25.2-48.9-51.8-53.7c-3.9-0.8-8-1-12.1-1.4c-2.7-0.2-5.9-0.4-6.6-3.5
	c-0.4-2.7,1.8-4.9,4.3-5.1h2c36,1,65.5,25,71.9,60.4c1,6.1,1.4,12.3,2,18.4C330.1,242.5,328.5,244.9,325.8,244.9z M299,317
	c-0.2,0-0.4,0.2-0.6,0.2c-0.2,0-0.4-0.2-0.6-0.2C296.8,316.4,299.8,316.4,299,317z"/>
</svg>
