<?xml version="1.0" encoding="utf-8"?>
<!-- Generator: Adobe Illustrator 24.0.1, SVG Export Plug-In . SVG Version: 6.00 Build 0)  -->
<svg version="1.1" id="Слой_1" xmlns="http://www.w3.org/2000/svg" xmlns:xlink="http://www.w3.org/1999/xlink" x="0px" y="0px"
	 viewBox="0 0 512 512" style="enable-background:new 0 0 512 512;" xml:space="preserve">
<style type="text/css">
	.st0{fill:#1BD741;}
</style>
<path class="st0" d="M256.2,128.4C186,128.4,129,185.5,129,255.6c0,24.6,7,48.3,20.1,68.6l3.1,4.9l-12.3,44l45.5-11.7l4.7,2.9
	c19.9,12.1,42.8,18.6,66.1,18.6c70.2,0,127.2-57.1,127.2-127.4C383.4,185.5,326.5,128.4,256.2,128.4z M332.6,302.1
	c-1.8,8.4-6.8,15.8-13.9,20.5c-9,5.7-20.9,8.6-35.8,4.5c-46.5-13.3-72.9-44-87-63.3c-14.1-19.3-19.5-38.5-16-54.3
	c2.3-10.4,10-18.6,14.7-22.7c2.5-2,5.5-3.1,8.6-3.1l10,0.6c1.8,0.2,3.7,1.2,4.5,3.1l14.3,34c0.8,1.8,0.4,3.9-0.8,5.3l-12.5,14.5
	c-1,1.2-1.2,2.9-0.6,4.3c16.6,31.9,46.9,44.6,55.9,47.9c1.6,0.4,3.3,0,4.3-1.4l13.1-17c1.6-1.8,4.1-2.5,6.3-1.6l33.6,15.6
	c2.3,1,3.3,3.5,2.9,5.7L332.6,302.1z M256,0C114.7,0,0,114.7,0,256c0,141.3,114.7,256,256,256s256-114.7,256-256
	C512,114.7,397.3,0,256,0z M256.2,408.8c-26.4,0-52-6.6-75-19.5l-78.6,20.3l21.5-76.4C110.2,309.9,103,283,103,255.6
	c0-84.4,68.6-153.2,153.2-153.2s153.2,68.8,153.2,153.2C409.4,340.2,340.8,408.8,256.2,408.8z"/>
</svg>
