<?xml version="1.0" encoding="utf-8"?>
<!-- Generator: Adobe Illustrator 24.0.1, SVG Export Plug-In . SVG Version: 6.00 Build 0)  -->
<svg version="1.1" id="Слой_1" xmlns="http://www.w3.org/2000/svg" xmlns:xlink="http://www.w3.org/1999/xlink" x="0px" y="0px"
	 viewBox="0 0 512 512" style="enable-background:new 0 0 512 512;" xml:space="preserve">
<style type="text/css">
	.st0{fill:#47B0D3;}
	.st1{fill:#FFFFFF;}
	.st2{fill:#CCCCCC;}
	.st3{fill:#E5E5E5;}
</style>
<g>
	<circle class="st0" cx="256" cy="256" r="256"/>
	<g>
		<path class="st1" d="M358,123.7L111.1,238.6c-4.3,2-7,6.4-7,11.1c0.1,4.7,2.9,9,7.2,10.9l66.9,29.1l186.3-166
			C362.5,122.8,360.1,122.7,358,123.7z"/>
		<polygon class="st2" points="364.5,123.7 178.3,289.8 193.7,392.6 214,305.3 		"/>
		<polygon class="st3" points="214,305.3 193.7,392.6 241.5,317.3 		"/>
		<path class="st1" d="M365.5,124.3c-0.3-0.2-0.6-0.4-1-0.6L214,305.3l27.5,12l0,0l97.5,42.4c7.6,3.5,16.5-2,17-10.3l12.8-218.4
			C369,128.4,367.8,125.8,365.5,124.3z"/>
	</g>
</g>
</svg>
