<?xml version="1.0" encoding="utf-8"?>
<!-- Generator: Adobe Illustrator 24.0.1, SVG Export Plug-In . SVG Version: 6.00 Build 0)  -->
<svg version="1.1" id="Слой_1" xmlns="http://www.w3.org/2000/svg" xmlns:xlink="http://www.w3.org/1999/xlink" x="0px" y="0px"
	 viewBox="0 0 512 512" style="enable-background:new 0 0 512 512;" xml:space="preserve">
<style type="text/css">
	.st0{fill:#436EAB;}
</style>
<path class="st0" d="M497.4,401.2h-74.6c-19.6,1.4-34.8-5.8-47.8-19.6c-10.1-10.9-19.6-21.7-29.7-32.6c-4.3-4.3-8.7-8.7-13.8-11.6
	c-10.1-6.5-18.8-4.3-24.6,5.8c-5.8,10.9-7.2,22.5-8,34.8c-0.7,17.4-5.8,22.5-23.9,23.2c-37.7,1.4-73.2-3.6-106.5-23.2
	c-29-16.7-52.2-40.6-71.7-67.4C58.3,258.4,28.6,201.2,2.5,141.8c-5.8-13-1.4-20.3,13-21c24.6-0.7,48.5-0.7,73.2,0
	c10.1,0,16.7,5.8,20.3,15.2c13,32.6,29,63,49.3,92c5.1,7.2,10.9,15.2,18.8,20.3c8.7,5.8,15.2,3.6,19.6-5.8c2.9-5.8,3.6-13,4.3-19.6
	c2.2-22.5,2.2-44.9-1.4-67.4c-2.2-13.8-10.1-23.2-23.9-25.4c-7.2-1.4-5.8-4.3-2.9-8c5.8-7.2,11.6-11.6,23.2-11.6H280
	c13,2.9,15.9,8.7,18.1,21.7v93.5c0,5.1,2.9,20.3,11.6,23.9c7.2,2.2,12.3-3.6,16.7-8c20.3-21.7,34.8-47.1,47.8-73.2
	c5.8-11.6,10.9-23.2,15.2-35.5c3.6-8.7,9.4-13,18.8-13h81.2c2.2,0,5.1,0,7.2,0.7c13.8,2.2,17.4,8,13,21.7
	c-6.5,21-19.6,38.4-32.6,55.8c-13.8,18.8-28.3,37-41.3,55.8c-10.9,17.4-10.1,26.1,5.1,41.3c16.7,16.7,34.8,31.9,50,50.7
	c6.5,8,13,16.7,18.1,26.1C516.2,385.2,509.7,400.4,497.4,401.2z"/>
</svg>
